<?xml version="1.0" encoding="utf-8"?>
<!-- Generator: Adobe Illustrator 16.0.0, SVG Export Plug-In . SVG Version: 6.00 Build 0)  -->
<!DOCTYPE svg PUBLIC "-//W3C//DTD SVG 1.1//EN" "http://www.w3.org/Graphics/SVG/1.1/DTD/svg11.dtd">
<svg version="1.1" id="Layer_1" xmlns="http://www.w3.org/2000/svg"  x="0px" y="0px"
	 width="1695.118px" height="850.394px" viewBox="0 0 1695.118 850.394" enable-background="new 0 0 1695.118 850.394"
	 xml:space="preserve">
<linearGradient id="SVGID_1_" gradientUnits="userSpaceOnUse" x1="978.4707" y1="724.3447" x2="978.4707" y2="514.6367">
	<stop  offset="0" style="stop-color:#D52B1E"/>
	<stop  offset="0.0814" style="stop-color:#DB3719"/>
	<stop  offset="0.3157" style="stop-color:#EB540E"/>
	<stop  offset="0.549" style="stop-color:#F66806"/>
	<stop  offset="0.7785" style="stop-color:#FD7502"/>
	<stop  offset="1" style="stop-color:#FF7900"/>
</linearGradient>
<path fill="url(#SVGID_1_)" d="M978.307,724.345c-25.533,0-46.985-9.135-62.033-26.411c-13.419-15.412-20.812-38.876-20.812-66.072
	v-24.402c0-27.222,7.393-50.693,20.812-66.094c15.239-17.487,36.689-26.729,62.033-26.729c24.992,0,47.074,9.485,62.181,26.71
	c13.537,15.436,20.991,38.916,20.991,66.112v24.402c0,27.707-7.61,50.942-22.004,67.196
	C1024.825,715.603,1003.675,724.345,978.307,724.345L978.307,724.345z M978.307,555.696c-13.127,0-23.101,4.253-29.648,12.644
	c-6.73,8.627-10.144,21.787-10.144,39.119v24.402c0,17.289,3.409,30.387,10.134,38.928c6.526,8.29,16.506,12.488,29.658,12.493
	c11.266,0.004,24.426-3.095,32.337-16.379c5.117-8.594,7.828-20.358,7.805-35.042v-24.402c-0.057-25.414-7.863-40.347-19.807-47.09
	C993.101,557.242,986.243,555.696,978.307,555.696L978.307,555.696z"/>
<linearGradient id="SVGID_2_" gradientUnits="userSpaceOnUse" x1="1330.4375" y1="724.3887" x2="1330.4375" y2="514.6797">
	<stop  offset="0" style="stop-color:#D52B1E"/>
	<stop  offset="0.0814" style="stop-color:#DB3719"/>
	<stop  offset="0.3157" style="stop-color:#EB540E"/>
	<stop  offset="0.549" style="stop-color:#F66806"/>
	<stop  offset="0.7785" style="stop-color:#FD7502"/>
	<stop  offset="1" style="stop-color:#FF7900"/>
</linearGradient>
<path fill="url(#SVGID_2_)" d="M1330.275,724.389c-25.535,0-46.985-9.134-62.035-26.411c-13.419-15.412-20.812-38.876-20.812-66.073
	v-24.401c0-27.221,7.393-50.692,20.813-66.095c15.237-17.486,36.688-26.729,62.033-26.729c24.99,0,47.072,9.486,62.179,26.711
	c13.537,15.436,20.992,38.916,20.992,66.112v24.401c0,27.708-7.607,50.944-22.005,67.198
	C1376.794,715.646,1355.643,724.389,1330.275,724.389L1330.275,724.389z M1330.275,555.738c-13.127,0-23.102,4.254-29.648,12.646
	c-6.732,8.625-10.144,21.785-10.144,39.118v24.401c0,17.291,3.407,30.388,10.134,38.928c6.527,8.289,16.506,12.489,29.658,12.494
	c11.264,0.004,24.426-3.096,32.337-16.38c5.118-8.593,7.826-20.356,7.803-35.042v-24.401c-0.057-25.414-7.861-40.348-19.807-47.09
	C1345.067,557.285,1338.212,555.738,1330.275,555.738L1330.275,555.738z"/>
<linearGradient id="SVGID_3_" gradientUnits="userSpaceOnUse" x1="1154.4697" y1="724.4541" x2="1154.4697" y2="518.501">
	<stop  offset="0" style="stop-color:#D52B1E"/>
	<stop  offset="0.0814" style="stop-color:#DB3719"/>
	<stop  offset="0.3157" style="stop-color:#EB540E"/>
	<stop  offset="0.549" style="stop-color:#F66806"/>
	<stop  offset="0.7785" style="stop-color:#FD7502"/>
	<stop  offset="1" style="stop-color:#FF7900"/>
</linearGradient>
<path fill="url(#SVGID_3_)" d="M1244.746,518.501h-44.839l-45.438,164.631c-0.002-0.002-0.002,0.003-0.002,0.003
	c-0.002,0.007-45.435-164.634-45.435-164.634h-44.839l53.244,181.723c2.784,9.609,8.298,16.449,16.394,20.331
	c7.282,3.493,15.259,3.898,20.624,3.899h0.025c5.365-0.001,13.343-0.406,20.626-3.899c8.093-3.882,13.607-10.722,16.392-20.331
	L1244.746,518.501z"/>
<linearGradient id="SVGID_4_" gradientUnits="userSpaceOnUse" x1="601.4033" y1="724.4033" x2="601.4033" y2="514.6133">
	<stop  offset="0" style="stop-color:#D52B1E"/>
	<stop  offset="0.0814" style="stop-color:#DB3719"/>
	<stop  offset="0.3157" style="stop-color:#EB540E"/>
	<stop  offset="0.549" style="stop-color:#F66806"/>
	<stop  offset="0.7785" style="stop-color:#FD7502"/>
	<stop  offset="1" style="stop-color:#FF7900"/>
</linearGradient>
<path fill="url(#SVGID_4_)" d="M683.538,604.73c0-21.426-4.974-47.292-21.366-65.24c-5.869-6.425-15.273-13.489-25.455-17.954
	c-8.146-3.572-20.597-6.926-33.906-6.923c-26.096,0.007-46.453,8.772-61.149,24.508c-14.841,15.891-21.42,37.834-22.392,65.022
	v29.976c0,31.771,8.542,55.711,26.34,71.146c14.646,12.7,38.437,19.139,62.903,19.139c20.441,0,35.245-2.891,54.118-6.496
	l10.816-2.384v-38.995l-10.816,1.775c-14.38,2.315-34.15,5.737-54.118,5.737c-14.554,0-28.867-3.312-35.091-10.577
	c-6.357-7.421-11.274-17.538-11.503-35.165h100.544c0.088,0,0.18-0.01,0.268-0.014c11.535-0.281,20.799-9.714,20.799-21.316
	c0-0.002,0-0.005,0-0.007c0-0.049,0.008-0.098,0.008-0.145V604.73z M562.021,601.069c0.542-12.046,0.313-21.459,5.341-29.311
	c1.544-2.671,3.707-5.309,6.413-7.659c3.445-2.995,7.233-5.055,10.813-6.092c4.75-1.699,10.64-2.311,18.223-2.311
	c14.871,0,24.548,5.275,29.431,10.943c8.504,9.872,8.801,20.653,9.395,34.429H562.021z"/>
<linearGradient id="SVGID_5_" gradientUnits="userSpaceOnUse" x1="789.5186" y1="720.4785" x2="789.5186" y2="514.6357">
	<stop  offset="0" style="stop-color:#D52B1E"/>
	<stop  offset="0.0814" style="stop-color:#DB3719"/>
	<stop  offset="0.3157" style="stop-color:#EB540E"/>
	<stop  offset="0.549" style="stop-color:#F66806"/>
	<stop  offset="0.7785" style="stop-color:#FD7502"/>
	<stop  offset="1" style="stop-color:#FF7900"/>
</linearGradient>
<path fill="url(#SVGID_5_)" d="M872.52,607.459c0-27.196-7.452-50.676-20.991-66.112c-15.106-17.225-37.189-26.711-62.179-26.711
	c-25.343,0-46.794,9.242-62.034,26.73c-13.421,15.398-20.816,38.872-20.816,66.093v113.02h43.054l0.004-113.02
	c0-17.331,3.412-30.492,10.144-39.12c6.547-8.391,16.522-12.505,29.648-12.643c13.111-0.142,23.996,4.787,29.877,12.414
	c6.691,8.671,10.263,21.637,10.263,39.349l-0.007,113.02h43.054C872.537,720.479,872.52,607.458,872.52,607.459z"/>
<linearGradient id="SVGID_6_" gradientUnits="userSpaceOnUse" x1="1501.709" y1="724.2998" x2="1501.709" y2="515.1045">
	<stop  offset="0" style="stop-color:#D52B1E"/>
	<stop  offset="0.0814" style="stop-color:#DB3719"/>
	<stop  offset="0.3157" style="stop-color:#EB540E"/>
	<stop  offset="0.549" style="stop-color:#F66806"/>
	<stop  offset="0.7785" style="stop-color:#FD7502"/>
	<stop  offset="1" style="stop-color:#FF7900"/>
</linearGradient>
<path fill="url(#SVGID_6_)" d="M1531.256,608.128l-35.356-19.536c-16.061-9.182-20.247-15.515-20.247-20.639
	c0-6.867,2.929-13.612,25.344-13.457c21.456,0.15,54.223,5.863,54.223,5.863c4.323,0.74,7.466,1.478,9.729,1.848l0.039-39.143
	c-0.631-0.148-4.235-0.881-7.264-1.431c-18.328-3.326-37.461-6.529-56.728-6.529c-21.765,0-38.023,3.453-49.697,10.563
	c-14.417,8.774-21.726,23.002-21.726,42.286c0,11.802,3.853,22.665,11.449,32.288c6.385,8.083,15.616,15.634,28.229,23.084
	l0.027,0.017l0.027,0.014l36.02,19.866c20.037,11.635,23.556,17.799,23.556,23.618c0,9.4-4.673,17.924-28.597,17.924
	c-19.573,0-66.359-8.711-66.359-8.711v39.66c0,0,42.012,8.587,66.359,8.587c22.239,0,39.845-4.422,52.329-13.146
	c14.085-9.84,21.229-25.572,21.229-44.854C1573.844,642.37,1561.498,625.514,1531.256,608.128z"/>
<g>
	<g>
		<path fill="#FF7900" d="M358.839,259.862h-0.016c-3.551,0-8.85-0.277-13.847-2.675c-5.776-2.771-9.697-7.596-11.65-14.34
			l-33.147-113.425h34.154c0,0,17.268,69.868,24.499,96.144l24.504-96.144h34.15l-33.15,113.434
			c-1.951,6.737-5.871,11.56-11.648,14.332C367.689,259.585,362.389,259.862,358.839,259.862L358.839,259.862z"/>
	</g>
	<g>
		<path fill="#FF7900" d="M358.825,455.514h0.016c3.551,0,8.85,0.276,13.847,2.674c5.776,2.772,9.696,7.596,11.65,14.34
			l33.147,113.426h-34.154c0,0-17.267-69.867-24.498-96.144l-24.505,96.144h-34.15L333.33,472.52
			c1.95-6.737,5.87-11.56,11.648-14.332C349.976,455.79,355.275,455.514,358.825,455.514L358.825,455.514z"/>
	</g>
	<g>
		<path fill="#FF7900" d="M456.687,357.694v-0.015c0-3.551,0.276-8.85,2.673-13.847c2.772-5.777,7.597-9.697,14.34-11.651
			l113.426-33.147v34.154c0,0-69.867,17.267-96.144,24.499l96.144,24.504v34.151L473.692,383.19
			c-6.736-1.95-11.56-5.87-14.333-11.648C456.963,366.544,456.687,361.245,456.687,357.694L456.687,357.694z"/>
	</g>
	<g>
		<path fill="#FF7900" d="M261.034,357.681v0.015c0,3.551-0.277,8.851-2.675,13.847c-2.771,5.777-7.596,9.697-14.34,11.65
			l-113.425,33.148v-34.155c0,0,69.868-17.266,96.144-24.498l-96.144-24.504v-34.15l113.434,33.151
			c6.736,1.95,11.561,5.87,14.332,11.648C260.757,348.831,261.034,354.13,261.034,357.681L261.034,357.681z"/>
	</g>
	<g>
		<path fill="#FF7900" d="M428.014,426.861l0.01-0.011c2.512-2.511,6.454-6.063,11.683-7.901c6.044-2.124,12.228-1.484,18.378,1.902
			l103.643,56.766l-24.151,24.151c0,0-61.613-37.194-85.307-50.663l50.656,85.313l-24.148,24.147l-56.768-103.65
			c-3.385-6.144-4.022-12.324-1.897-18.371C421.952,433.314,425.502,429.372,428.014,426.861L428.014,426.861z"/>
	</g>
	<g>
		<path fill="#FF7900" d="M289.677,288.505l-0.011,0.01c-2.511,2.511-6.454,6.062-11.682,7.9
			c-6.045,2.125-12.228,1.485-18.378-1.902l-103.643-56.765l24.151-24.15c0,0,61.613,37.194,85.307,50.66l-50.657-85.311
			l24.148-24.148l56.768,103.651c3.385,6.144,4.023,12.326,1.898,18.371C295.738,282.052,292.188,285.994,289.677,288.505
			L289.677,288.505z"/>
	</g>
	<g>
		<path fill="#FF7900" d="M289.643,426.852l0.01,0.012c2.511,2.511,6.063,6.453,7.901,11.683c2.124,6.045,1.485,12.227-1.902,18.377
			l-56.765,103.643l-24.151-24.149c0,0,37.194-61.614,50.661-85.307l-85.311,50.657l-24.149-24.149l103.652-56.768
			c6.143-3.386,12.324-4.024,18.371-1.898C283.189,420.79,287.132,424.342,289.643,426.852L289.643,426.852z"/>
	</g>
	<g>
		<path fill="#FF7900" d="M427.999,288.515l-0.01-0.011c-2.511-2.511-6.062-6.454-7.9-11.682
			c-2.125-6.045-1.485-12.229,1.901-18.378l56.765-103.643l24.151,24.151c0,0-37.195,61.613-50.661,85.306l85.311-50.656
			l24.147,24.147l-103.65,56.769c-6.143,3.385-12.326,4.023-18.371,1.898C434.452,294.577,430.51,291.026,427.999,288.515
			L427.999,288.515z"/>
	</g>
</g>
</svg>
